<svg id="svg" xmlns="http://www.w3.org/2000/svg" xmlns:xlink="http://www.w3.org/1999/xlink" width="400" height="78.05555555555554" viewBox="0, 0, 400,78.05555555555554"><g id="svgg"><path id="path0" d="M192.778 12.383 C 192.549 12.428,191.767 12.543,191.042 12.638 L 189.722 12.812 189.722 14.442 C 189.722 15.529,189.582 16.212,189.301 16.493 C 188.763 17.030,188.660 19.632,188.481 37.080 C 188.330 51.747,188.429 50.948,186.592 52.320 C 185.806 52.907,183.320 53.252,182.096 52.945 L 181.389 52.767 181.389 46.483 L 181.389 40.198 179.144 36.069 C 175.870 30.048,175.816 30.044,172.661 35.548 L 170.278 39.707 170.278 44.585 C 170.278 48.987,170.230 49.476,169.792 49.612 C 168.855 49.901,168.470 50.189,168.194 50.806 C 167.980 51.286,167.753 51.395,167.193 51.284 C 166.795 51.206,166.358 51.243,166.221 51.367 C 165.722 51.821,164.193 51.942,163.967 51.545 C 163.703 51.081,163.425 51.036,161.042 51.078 L 159.167 51.111 159.167 52.417 C 159.167 53.432,159.093 53.648,158.833 53.389 C 158.631 53.187,157.648 53.056,156.333 53.056 L 154.167 53.056 154.167 55.417 C 154.167 57.682,154.141 57.778,153.542 57.773 C 152.840 57.767,147.499 57.037,146.319 56.785 L 145.556 56.623 145.556 43.036 L 145.556 29.449 146.516 28.191 C 150.014 23.609,144.669 17.761,140.046 21.110 C 137.576 22.899,137.402 26.652,139.693 28.724 C 140.269 29.245,140.278 29.418,140.278 40.356 L 140.278 51.458 139.375 51.247 C 137.651 50.842,135.278 51.173,135.278 51.818 C 135.278 52.118,134.919 52.222,133.889 52.222 L 132.500 52.222 132.500 50.706 L 132.500 49.189 130.208 49.108 L 127.917 49.028 127.771 44.722 C 127.590 39.343,127.874 39.722,124.031 39.722 C 120.966 39.722,120.869 39.741,120.783 40.347 C 120.720 40.795,120.478 40.997,119.931 41.060 C 119.291 41.134,119.167 41.280,119.167 41.963 C 119.167 42.756,119.129 42.778,117.778 42.778 L 116.389 42.778 116.389 44.444 L 116.389 46.111 115.014 46.111 L 113.639 46.111 113.556 47.697 C 113.480 49.130,113.405 49.298,112.778 49.444 C 112.166 49.586,112.054 49.811,111.836 51.331 C 111.599 52.990,111.559 53.056,110.788 53.056 C 109.869 53.056,109.558 53.630,109.224 55.942 C 109.075 56.968,108.896 57.362,108.575 57.365 C 108.331 57.368,107.924 57.541,107.671 57.751 C 106.707 58.551,104.886 58.298,104.850 57.359 C 104.832 56.902,104.720 55.372,104.601 53.958 L 104.385 51.389 103.373 51.348 C 102.817 51.326,101.650 51.272,100.781 51.229 C 99.339 51.156,99.193 51.202,99.114 51.755 C 99.060 52.135,98.798 52.394,98.410 52.449 C 97.810 52.534,97.791 52.643,97.716 56.477 L 97.639 60.417 95.000 60.327 C 93.210 60.267,91.370 59.976,89.283 59.425 C 85.572 58.444,80.026 58.303,74.865 59.059 C 71.492 59.553,70.726 59.873,66.686 62.478 C 63.670 64.423,62.807 64.561,59.722 63.593 C 56.539 62.593,54.285 62.507,26.906 62.333 L -0.000 62.162 -0.000 64.900 L -0.000 67.639 13.264 67.580 C 34.300 67.486,91.314 66.962,127.639 66.530 C 178.805 65.920,185.266 65.840,195.278 65.688 C 234.037 65.101,310.645 64.275,377.569 63.723 L 400.000 63.537 400.000 62.354 L 400.000 61.171 394.931 61.004 C 392.142 60.911,382.861 60.703,374.306 60.542 C 359.243 60.257,357.203 60.152,350.723 59.329 C 347.055 58.863,342.841 59.406,339.583 60.763 C 336.476 62.058,331.867 62.439,328.052 61.715 C 324.361 61.016,323.143 60.863,318.999 60.581 L 315.637 60.352 312.749 58.807 C 307.164 55.819,303.135 54.666,298.110 54.617 L 294.691 54.583 294.763 53.578 C 294.860 52.215,294.262 51.667,292.675 51.667 C 291.986 51.667,291.349 51.549,291.260 51.405 C 290.972 50.939,289.040 51.225,288.939 51.749 C 288.889 52.009,288.670 52.222,288.452 52.222 C 288.234 52.222,288.056 52.472,288.056 52.778 C 288.056 53.148,287.870 53.333,287.500 53.333 C 287.194 53.333,286.944 53.465,286.944 53.626 C 286.944 53.804,286.375 53.885,285.486 53.834 L 284.028 53.750 283.943 52.089 C 283.883 50.923,283.707 50.289,283.352 49.958 C 282.977 49.608,282.795 48.863,282.645 47.056 C 282.522 45.591,282.288 44.470,282.054 44.237 C 281.792 43.975,281.667 43.181,281.667 41.786 C 281.667 40.595,281.549 39.722,281.389 39.722 C 281.227 39.722,281.111 40.651,281.111 41.953 C 281.111 43.680,281.017 44.220,280.694 44.344 C 280.432 44.445,280.256 44.930,280.220 45.655 C 280.188 46.288,280.068 44.306,279.954 41.250 C 279.700 34.466,279.354 28.980,279.166 28.795 C 278.936 28.566,272.987 28.540,271.983 28.763 C 270.745 29.038,270.278 30.175,270.278 32.908 L 270.278 35.000 269.324 35.000 C 267.927 35.000,266.903 35.458,267.001 36.040 C 267.063 36.409,266.863 36.549,266.181 36.615 C 265.269 36.703,265.200 36.800,265.161 38.056 C 265.145 38.556,264.964 38.775,264.514 38.839 C 264.059 38.903,263.889 39.114,263.889 39.612 C 263.889 40.054,263.682 40.372,263.302 40.513 C 262.743 40.719,262.717 40.900,262.760 44.254 C 262.790 46.559,262.705 47.778,262.514 47.778 C 262.330 47.778,262.222 46.757,262.222 45.005 C 262.222 41.798,262.433 41.995,258.889 41.876 L 256.806 41.806 256.728 38.280 L 256.650 34.754 255.478 34.580 C 254.833 34.485,252.618 34.384,250.556 34.356 L 246.806 34.306 246.721 35.972 C 246.674 36.889,246.518 37.758,246.374 37.903 C 246.229 38.048,246.111 39.505,246.111 41.141 C 246.111 43.978,246.086 44.108,245.556 43.969 C 245.250 43.889,245.000 43.717,245.000 43.586 C 245.000 43.455,244.625 43.154,244.167 42.917 C 243.347 42.493,243.333 42.449,243.333 40.287 C 243.333 39.078,243.208 38.011,243.056 37.917 C 242.879 37.807,242.778 38.608,242.778 40.122 L 242.778 42.500 241.285 42.500 C 239.004 42.500,238.056 42.758,238.056 43.377 C 238.056 44.016,237.307 44.363,236.870 43.926 C 236.697 43.753,236.334 43.611,236.063 43.611 C 235.620 43.611,235.564 43.233,235.494 39.792 L 235.417 35.972 234.541 36.060 C 234.060 36.108,233.584 36.014,233.483 35.851 C 233.383 35.689,232.808 35.556,232.206 35.556 C 231.223 35.556,231.111 35.484,231.111 34.861 C 231.111 34.374,230.960 34.167,230.605 34.167 C 230.256 34.167,230.007 33.841,229.806 33.125 L 229.515 32.083 229.480 32.983 L 229.444 33.883 225.208 33.816 L 220.972 33.750 220.833 35.000 C 220.708 36.127,220.617 36.259,219.907 36.340 L 219.119 36.430 219.196 32.581 C 219.278 28.542,219.185 28.056,218.334 28.056 C 217.931 28.056,217.792 27.818,217.725 27.014 C 217.614 25.668,216.866 25.577,216.667 26.885 L 216.528 27.797 215.608 26.954 C 215.102 26.491,214.598 26.111,214.489 26.111 C 213.853 26.111,213.353 24.886,213.277 23.137 C 213.158 20.409,212.397 20.425,212.278 23.158 C 212.196 25.056,211.970 25.558,211.042 25.910 C 210.774 26.011,210.556 26.223,210.556 26.380 C 210.556 26.538,210.383 26.667,210.173 26.667 C 209.962 26.667,209.594 26.948,209.354 27.292 L 208.918 27.917 208.903 27.048 C 208.873 25.244,207.671 25.274,207.649 27.079 C 207.642 27.684,207.488 27.937,207.083 28.014 C 206.186 28.185,206.120 28.534,206.115 33.089 L 206.111 37.428 204.653 37.613 C 203.851 37.714,202.788 37.869,202.292 37.957 L 201.389 38.117 201.389 41.698 L 201.389 45.278 199.844 45.278 L 198.299 45.278 198.354 31.563 C 198.384 24.020,198.303 17.676,198.173 17.466 C 198.043 17.255,197.869 16.151,197.787 15.011 L 197.639 12.939 196.667 12.753 C 195.238 12.479,193.255 12.290,192.778 12.383 " stroke="none" fill="#000000" fill-rule="evenodd"></path></g></svg>