<svg width="141" height="174" viewBox="0 0 141 174" fill="none" xmlns="http://www.w3.org/2000/svg">
<path d="M46.2706 40.6994C47.5038 39.4474 49.2871 38.9656 50.9757 39.4279L60.1778 41.9318C62.7767 42.6447 64.3129 45.3411 63.63 47.9797C62.928 50.6184 60.2721 52.1789 57.6729 51.4855L51.1846 49.7131L10.2989 91.2013L25.2677 147.887L81.1036 163.084L123.963 119.573C125.86 117.647 128.952 117.647 130.85 119.573C132.747 121.499 132.747 124.639 130.85 126.565L85.9991 172.098C85.0695 173.022 83.8171 173.542 82.546 173.542C82.1287 173.542 81.7113 173.485 81.294 173.369L20.0313 156.708C18.343 156.246 17.0336 154.917 16.5782 153.203L0.167065 91.009C-0.288215 89.2948 0.205826 87.4845 1.41999 86.2326L46.2706 40.6994ZM89.8702 116.164C91.7674 114.238 94.8597 114.238 96.7569 116.164C98.6538 118.09 98.6539 121.229 96.7569 123.155L77.1768 143.071C76.2283 144.034 74.9767 144.516 73.7247 144.516C72.4725 144.516 71.2391 144.034 70.2716 143.071C68.3743 141.145 68.3743 138.006 70.2716 136.08L89.8702 116.164ZM131.002 36.5002C132.899 34.5741 135.992 34.5741 137.89 36.5002C139.787 38.4263 139.787 41.5663 137.89 43.4924L47.7139 135.059C46.7464 136.022 45.5129 136.504 44.2608 136.504C43.0086 136.504 41.7753 136.022 40.8077 135.059C38.9105 133.133 38.9105 129.994 40.8077 128.068L131.002 36.5002ZM111.29 94.4562C113.187 92.5305 116.28 92.5306 118.177 94.4562C120.074 96.3823 120.074 99.5223 118.177 101.448L110.19 109.558C109.241 110.521 107.989 111.002 106.756 111.002C105.504 111.002 104.27 110.521 103.303 109.558C101.406 107.632 101.406 104.492 103.303 102.566L111.29 94.4562ZM43.2921 89.006C45.1893 87.0799 48.2825 87.0799 50.1798 89.006C52.0766 90.932 52.0765 94.0712 50.1798 95.9972L42.1915 104.107C41.2619 105.069 40.0099 105.551 38.7579 105.551C37.5057 105.551 36.2723 105.07 35.3048 104.107C33.4076 102.181 33.4075 99.0405 35.3048 97.1144L43.2921 89.006ZM132.691 72.7306C134.588 70.8045 137.68 70.8045 139.577 72.7306C141.474 74.6568 141.474 77.7958 139.577 79.7219L131.59 87.8312C130.641 88.7941 129.389 89.2755 128.156 89.2756C126.904 89.2756 125.671 88.7942 124.703 87.8312C122.806 85.9051 122.806 82.7652 124.703 80.839L132.691 72.7306ZM64.6944 67.2795C66.5917 65.3535 69.6839 65.3534 71.5811 67.2795C73.4781 69.2055 73.478 72.3446 71.5811 74.2707L63.5938 82.3801C62.6452 83.3431 61.4114 83.8244 60.1593 83.8244C58.9072 83.8243 57.6736 83.343 56.7061 82.3801C54.8091 80.4539 54.809 77.3139 56.7061 75.3879L64.6944 67.2795ZM129.541 1.44451C131.438 -0.481547 134.532 -0.481459 136.429 1.44451C138.326 3.37057 138.326 6.51058 136.429 8.4367L85.4493 60.2101C84.4818 61.1731 83.2492 61.6553 81.9971 61.6554C80.745 61.6554 79.5116 61.1732 78.544 60.2101C76.6468 58.284 76.6468 55.145 78.544 53.2189L129.541 1.44451Z" fill="url(#paint0_linear_792_9198)"/>
<defs>
<linearGradient id="paint0_linear_792_9198" x1="141" y1="5.00024" x2="64.1436" y2="168.5" gradientUnits="userSpaceOnUse">
<stop stop-color="#FF56D6"/>
<stop offset="1" stop-color="#FF9167"/>
</linearGradient>
</defs>
</svg>
