<svg width="528" height="163" viewBox="0 0 528 163" fill="none" xmlns="http://www.w3.org/2000/svg">
<path d="M116.822 143.8H118.942V157.22H118.222L110.182 148.06V157H108.062V143.58H108.802L116.822 152.7V143.8ZM121.423 152.08C121.363 149.26 123.783 146.92 126.603 146.96C129.463 146.9 131.883 149.3 131.823 152.08C131.883 154.86 129.463 157.28 126.603 157.22C123.783 157.28 121.363 154.86 121.423 152.08ZM129.663 152.1C129.663 150.28 128.323 148.88 126.623 148.88C124.883 148.88 123.563 150.28 123.563 152.1C123.563 153.92 124.883 155.28 126.603 155.28C128.343 155.28 129.663 153.88 129.663 152.1ZM139.851 147.18V149.04H139.211C137.551 149.04 136.331 150.02 136.331 151.76V157H134.231V147.18H136.191V148.46C136.891 147.58 137.931 147.08 139.051 147.08C139.351 147.08 139.611 147.12 139.851 147.18ZM147.571 155.22V157C146.911 157.14 146.331 157.22 145.831 157.22C143.571 157.22 142.211 156.1 142.211 153.8V149H140.611V147.18H142.211V144.6H144.331V147.18H147.251V149H144.331V153.62C144.331 154.88 144.991 155.32 146.271 155.32C146.571 155.32 146.991 155.28 147.571 155.22ZM158.28 150.86V157H156.18V151.16C156.18 149.8 155.34 148.88 154.04 148.88C152.74 148.88 151.8 149.82 151.8 151.16V157H149.7V142H151.8V148.16C152.46 147.38 153.46 146.96 154.64 146.96C156.88 146.96 158.28 148.54 158.28 150.86ZM174.813 157L173.873 154.8H167.933L166.993 157H164.733L170.553 143.58H171.273L177.093 157H174.813ZM173.113 152.98L170.913 147.52L168.693 152.98H173.113ZM193.795 150.86V157H191.675V151.16C191.675 149.78 190.895 148.88 189.635 148.88C188.355 148.88 187.475 149.8 187.475 151.06V157H185.375V151.16C185.375 149.8 184.575 148.88 183.315 148.88C182.035 148.88 181.155 149.8 181.155 151.16V157H179.055V147.18H181.015V148.1C181.715 147.38 182.675 146.96 183.855 146.96C185.215 146.96 186.255 147.54 186.835 148.5C187.555 147.56 188.775 146.96 190.155 146.96C192.415 146.96 193.795 148.52 193.795 150.86ZM205.551 152.78H198.231C198.491 154.38 199.751 155.36 201.431 155.36C202.451 155.36 203.411 154.98 204.291 154.2L205.291 155.64C204.171 156.7 202.871 157.22 201.371 157.22C198.371 157.22 196.091 155 196.091 152.1C196.031 149.28 198.391 146.9 201.171 146.96C203.771 146.96 205.711 148.9 205.711 151.46C205.711 151.88 205.651 152.32 205.551 152.78ZM198.271 151.14H203.611C203.591 149.64 202.471 148.74 201.091 148.74C199.711 148.74 198.591 149.68 198.271 151.14ZM213.738 147.18V149.04H213.098C211.438 149.04 210.218 150.02 210.218 151.76V157H208.118V147.18H210.078V148.46C210.778 147.58 211.818 147.08 212.938 147.08C213.238 147.08 213.498 147.12 213.738 147.18ZM215.618 157V147.18H217.718V157H215.618ZM215.238 143.52C215.238 142.74 215.878 142.12 216.678 142.12C217.458 142.12 218.098 142.74 218.098 143.52C218.098 144.3 217.458 144.9 216.678 144.9C215.878 144.9 215.238 144.3 215.238 143.52ZM220.134 152.08C220.074 149.26 222.514 146.92 225.334 146.96C227.154 146.96 228.614 147.82 229.474 149.24L227.994 150.4C227.294 149.4 226.414 148.9 225.354 148.9C223.594 148.9 222.274 150.3 222.274 152.08C222.274 153.88 223.594 155.28 225.354 155.28C226.394 155.28 227.274 154.78 227.994 153.8L229.474 154.94C228.594 156.36 227.114 157.22 225.334 157.22C222.434 157.22 220.134 154.94 220.134 152.08ZM239.59 151.06V157H237.63V155.9C236.91 156.76 235.83 157.22 234.49 157.22C232.43 157.22 231.07 156.08 231.07 154.38C231.07 152.68 232.47 151.58 234.69 151.58H237.47V150.94C237.47 149.58 236.71 148.84 235.37 148.84C234.27 148.84 233.47 149.32 232.65 150.3L231.43 149.06C232.41 147.64 233.87 146.96 235.57 146.96C237.99 146.96 239.59 148.42 239.59 151.06ZM237.47 153.28V153.1H234.95C233.83 153.1 233.21 153.5 233.21 154.3C233.21 155.12 233.91 155.6 234.93 155.6C236.35 155.6 237.47 154.62 237.47 153.28ZM242.577 149.16L242.757 143.8H245.177L244.197 149.16H242.577ZM246.827 155.32L248.027 154C248.887 154.9 249.747 155.4 250.787 155.4C251.687 155.4 252.367 155.02 252.367 154.3C252.367 153.72 251.947 153.48 250.987 153.08L249.987 152.66C248.247 151.94 247.427 151.18 247.427 149.8C247.427 148.04 248.887 146.96 250.887 146.96C252.307 146.96 253.427 147.46 254.287 148.48L253.147 149.78C252.527 149.14 251.707 148.78 250.847 148.78C250.027 148.78 249.507 149.1 249.507 149.72C249.507 150.22 249.847 150.48 250.807 150.88L251.747 151.26C253.607 152.04 254.427 152.84 254.427 154.22C254.427 155.16 254.087 155.9 253.387 156.44C252.687 156.96 251.827 157.22 250.787 157.22C249.107 157.22 247.707 156.46 246.827 155.32ZM262.594 157V143.8H264.714V155.1H270.754V157H262.594ZM280.547 151.06V157H278.587V155.9C277.867 156.76 276.787 157.22 275.447 157.22C273.387 157.22 272.027 156.08 272.027 154.38C272.027 152.68 273.427 151.58 275.647 151.58H278.427V150.94C278.427 149.58 277.667 148.84 276.327 148.84C275.227 148.84 274.427 149.32 273.607 150.3L272.387 149.06C273.367 147.64 274.827 146.96 276.527 146.96C278.947 146.96 280.547 148.42 280.547 151.06ZM278.427 153.28V153.1H275.907C274.787 153.1 274.167 153.5 274.167 154.3C274.167 155.12 274.867 155.6 275.887 155.6C277.307 155.6 278.427 154.62 278.427 153.28ZM289.089 147.18V149.04H288.449C286.789 149.04 285.569 150.02 285.569 151.76V157H283.469V147.18H285.429V148.46C286.129 147.58 287.169 147.08 288.289 147.08C288.589 147.08 288.849 147.12 289.089 147.18ZM298.474 147.18H300.414V155.98C300.414 159.08 298.474 160.82 295.494 160.82C293.554 160.82 291.954 160.06 290.774 158.96L291.934 157.5C293.034 158.38 294.034 158.9 295.374 158.9C297.154 158.9 298.314 157.94 298.314 156.1V155.4C297.574 156.3 296.354 156.8 294.994 156.8C292.254 156.8 290.214 154.74 290.214 151.88C290.214 149.02 292.274 146.96 294.994 146.96C296.494 146.96 297.754 147.56 298.474 148.58V147.18ZM298.334 151.86C298.334 149.86 296.994 148.84 295.374 148.84C294.514 148.84 293.814 149.12 293.234 149.68C292.654 150.24 292.374 150.98 292.374 151.88C292.374 152.8 292.654 153.54 293.234 154.12C293.814 154.68 294.514 154.96 295.374 154.96C296.194 154.96 296.874 154.7 297.454 154.16C298.034 153.62 298.334 152.86 298.334 151.86ZM312.29 152.78H304.97C305.23 154.38 306.49 155.36 308.17 155.36C309.19 155.36 310.15 154.98 311.03 154.2L312.03 155.64C310.91 156.7 309.61 157.22 308.11 157.22C305.11 157.22 302.83 155 302.83 152.1C302.77 149.28 305.13 146.9 307.91 146.96C310.51 146.96 312.45 148.9 312.45 151.46C312.45 151.88 312.39 152.32 312.29 152.78ZM305.01 151.14H310.35C310.33 149.64 309.21 148.74 307.83 148.74C306.45 148.74 305.33 149.68 305.01 151.14ZM313.936 155.32L315.136 154C315.996 154.9 316.856 155.4 317.896 155.4C318.796 155.4 319.476 155.02 319.476 154.3C319.476 153.72 319.056 153.48 318.096 153.08L317.096 152.66C315.356 151.94 314.536 151.18 314.536 149.8C314.536 148.04 315.996 146.96 317.996 146.96C319.416 146.96 320.536 147.46 321.396 148.48L320.256 149.78C319.636 149.14 318.816 148.78 317.956 148.78C317.136 148.78 316.616 149.1 316.616 149.72C316.616 150.22 316.956 150.48 317.916 150.88L318.856 151.26C320.716 152.04 321.536 152.84 321.536 154.22C321.536 155.16 321.196 155.9 320.496 156.44C319.796 156.96 318.936 157.22 317.896 157.22C316.216 157.22 314.816 156.46 313.936 155.32ZM329.798 155.22V157C329.138 157.14 328.558 157.22 328.058 157.22C325.798 157.22 324.438 156.1 324.438 153.8V149H322.838V147.18H324.438V144.6H326.558V147.18H329.478V149H326.558V153.62C326.558 154.88 327.218 155.32 328.498 155.32C328.798 155.32 329.218 155.28 329.798 155.22ZM340.812 155.16H346.392V157H336.932V156.52L341.632 151.46C343.092 149.92 343.732 148.96 343.732 147.84C343.732 146.5 342.872 145.52 341.532 145.52C340.192 145.52 339.292 146.56 339.292 147.92C339.292 148.2 339.332 148.54 339.392 148.94H337.252C337.152 148.58 337.112 148.2 337.112 147.8C337.112 145.64 338.852 143.58 341.552 143.58C344.072 143.58 345.932 145.36 345.932 147.68C345.932 148.58 345.692 149.4 345.212 150.14C344.752 150.88 344.052 151.72 343.132 152.7L340.812 155.16ZM358.337 152.88V154.7H356.537V157H354.417V154.7H347.817V154.12L352.037 143.8H354.217L350.477 152.88H354.417V148.82H356.537V152.88H358.337ZM359.668 151.54V149.76H364.588V151.54H359.668ZM375.662 150.86V157H373.563V151.16C373.563 149.8 372.723 148.88 371.423 148.88C370.123 148.88 369.183 149.82 369.183 151.16V157H367.083V142H369.183V148.16C369.843 147.38 370.842 146.96 372.023 146.96C374.263 146.96 375.662 148.54 375.662 150.86ZM377.966 152.08C377.906 149.26 380.326 146.92 383.146 146.96C386.006 146.9 388.426 149.3 388.366 152.08C388.426 154.86 386.006 157.28 383.146 157.22C380.326 157.28 377.906 154.86 377.966 152.08ZM386.206 152.1C386.206 150.28 384.866 148.88 383.166 148.88C381.426 148.88 380.106 150.28 380.106 152.1C380.106 153.92 381.426 155.28 383.146 155.28C384.886 155.28 386.206 153.88 386.206 152.1ZM390.674 152.88V147.18H392.754V153.04C392.754 154.4 393.694 155.28 394.974 155.28C396.194 155.28 397.134 154.4 397.134 153.04V147.18H399.234V152.88C399.234 155.52 397.374 157.22 394.974 157.22C392.514 157.22 390.674 155.52 390.674 152.88ZM407.8 147.18V149.04H407.16C405.5 149.04 404.28 150.02 404.28 151.76V157H402.18V147.18H404.14V148.46C404.84 147.58 405.88 147.08 407 147.08C407.3 147.08 407.56 147.12 407.8 147.18ZM415.426 157V143.8H417.546V149.06H424.186V143.8H426.306V157H424.186V150.96H417.546V157H415.426ZM437.207 151.06V157H435.247V155.9C434.527 156.76 433.447 157.22 432.107 157.22C430.047 157.22 428.687 156.08 428.687 154.38C428.687 152.68 430.087 151.58 432.307 151.58H435.087V150.94C435.087 149.58 434.327 148.84 432.987 148.84C431.887 148.84 431.087 149.32 430.267 150.3L429.047 149.06C430.027 147.64 431.487 146.96 433.187 146.96C435.607 146.96 437.207 148.42 437.207 151.06ZM435.087 153.28V153.1H432.567C431.447 153.1 430.827 153.5 430.827 154.3C430.827 155.12 431.527 155.6 432.547 155.6C433.967 155.6 435.087 154.62 435.087 153.28ZM439.509 152.08C439.449 149.26 441.889 146.92 444.709 146.96C446.529 146.96 447.989 147.82 448.849 149.24L447.369 150.4C446.669 149.4 445.789 148.9 444.729 148.9C442.969 148.9 441.649 150.3 441.649 152.08C441.649 153.88 442.969 155.28 444.729 155.28C445.769 155.28 446.649 154.78 447.369 153.8L448.849 154.94C447.969 156.36 446.489 157.22 444.709 157.22C441.809 157.22 439.509 154.94 439.509 152.08ZM451.165 157V142H453.265V157H451.165ZM455.805 151.5L460.105 157H457.585L453.325 151.48L457.165 147.18H459.765L455.805 151.5ZM469.433 151.06V157H467.473V155.9C466.753 156.76 465.673 157.22 464.333 157.22C462.273 157.22 460.913 156.08 460.913 154.38C460.913 152.68 462.313 151.58 464.533 151.58H467.313V150.94C467.313 149.58 466.553 148.84 465.213 148.84C464.113 148.84 463.313 149.32 462.493 150.3L461.273 149.06C462.253 147.64 463.713 146.96 465.413 146.96C467.833 146.96 469.433 148.42 469.433 151.06ZM467.313 153.28V153.1H464.793C463.673 153.1 463.053 153.5 463.053 154.3C463.053 155.12 463.753 155.6 464.773 155.6C466.193 155.6 467.313 154.62 467.313 153.28ZM478.196 155.22V157C477.536 157.14 476.956 157.22 476.456 157.22C474.196 157.22 472.836 156.1 472.836 153.8V149H471.236V147.18H472.836V144.6H474.956V147.18H477.876V149H474.956V153.62C474.956 154.88 475.616 155.32 476.896 155.32C477.196 155.32 477.616 155.28 478.196 155.22ZM488.905 150.86V157H486.805V151.16C486.805 149.8 485.965 148.88 484.665 148.88C483.365 148.88 482.425 149.82 482.425 151.16V157H480.325V142H482.425V148.16C483.085 147.38 484.085 146.96 485.265 146.96C487.505 146.96 488.905 148.54 488.905 150.86ZM491.209 152.08C491.149 149.26 493.569 146.92 496.389 146.96C499.249 146.9 501.669 149.3 501.609 152.08C501.669 154.86 499.249 157.28 496.389 157.22C493.569 157.28 491.149 154.86 491.209 152.08ZM499.449 152.1C499.449 150.28 498.109 148.88 496.409 148.88C494.669 148.88 493.349 150.28 493.349 152.1C493.349 153.92 494.669 155.28 496.389 155.28C498.129 155.28 499.449 153.88 499.449 152.1ZM512.596 150.86V157H510.496V151.14C510.496 149.78 509.636 148.86 508.356 148.86C507.056 148.86 506.116 149.8 506.116 151.14V157H504.016V147.18H505.976V148.14C506.716 147.36 507.696 146.96 508.916 146.96C511.216 146.96 512.596 148.52 512.596 150.86Z" fill="white"/>
<g filter="url(#filter0_d_1061_2355)">
<path d="M11.12 118V38.8H27.32V69.16H62.36V38.8H78.56V118H62.36V83.8H27.32V118H11.12ZM144.801 82.72V118H129.921V112.24C125.601 116.68 119.361 119.44 111.801 119.44C99.2009 119.44 91.2809 112.12 91.2809 101.68C91.2809 91 99.9209 84.4 113.721 84.4H128.601V81.76C128.601 75.16 124.761 71.32 117.561 71.32C111.441 71.32 107.121 73.84 101.841 79.48L93.4409 69.52C100.281 61.36 108.921 57.28 119.361 57.28C134.841 57.28 144.801 66.28 144.801 82.72ZM128.601 95.8V95.08H115.881C110.601 95.08 107.601 97.12 107.601 101.08C107.601 105.04 110.961 107.56 116.121 107.56C123.201 107.56 128.601 102.64 128.601 95.8ZM157.032 88.24C157.032 70.84 171.192 57.28 188.832 57.28C200.472 57.28 209.472 62.8 214.632 71.92L203.352 80.68C199.632 75.28 195.312 72.04 189.072 72.04C179.952 72.04 173.472 79 173.472 88.24C173.472 97.72 179.952 104.56 189.072 104.56C195.192 104.56 199.512 101.44 203.352 96.04L214.632 104.68C209.472 113.8 200.352 119.44 188.832 119.44C171.432 119.8 156.792 105.4 157.032 88.24ZM285.163 118H266.683L242.803 85.12V118H226.603V28H242.803V83.92L264.163 58.6H283.363L261.043 84.88L285.163 118Z" fill="white"/>
<path d="M292.119 85.24V38.8H308.319V86.44C308.319 97.96 315.519 104.44 325.719 104.44C336.159 104.44 343.119 97.96 343.119 86.44V38.8H359.319V85.24C359.319 106.24 344.919 119.44 325.719 119.44C306.279 119.44 292.119 106.24 292.119 85.24ZM394.742 118V53.44H369.422V38.8H436.382V53.44H410.942V118H394.742ZM447.058 118V38.8H472.978C498.058 38.56 516.538 54.76 516.178 78.16C516.538 101.08 498.058 118.36 472.978 118H447.058ZM463.258 103.36H472.858C488.818 103.36 499.498 93.4 499.498 78.16C499.498 62.8 489.058 53.44 472.858 53.44H463.258V103.36Z" fill="url(#paint0_linear_1061_2355)"/>
</g>
<path d="M25.98 5.8H28.3L23.16 19.22H22.46L18.52 9.86L14.58 19.22H13.86L8.72 5.8H11.06L14.36 14.72L18.14 5.58H18.88L22.68 14.72L25.98 5.8ZM38.1647 14.78H30.8447C31.1047 16.38 32.3647 17.36 34.0447 17.36C35.0647 17.36 36.0247 16.98 36.9047 16.2L37.9047 17.64C36.7847 18.7 35.4847 19.22 33.9847 19.22C30.9847 19.22 28.7047 17 28.7047 14.1C28.6447 11.28 31.0047 8.9 33.7847 8.96C36.3847 8.96 38.3247 10.9 38.3247 13.46C38.3247 13.88 38.2647 14.32 38.1647 14.78ZM30.8847 13.14H36.2247C36.2047 11.64 35.0847 10.74 33.7047 10.74C32.3247 10.74 31.2047 11.68 30.8847 13.14ZM54.1364 13.06V19H52.1764V17.9C51.4564 18.76 50.3764 19.22 49.0364 19.22C46.9764 19.22 45.6164 18.08 45.6164 16.38C45.6164 14.68 47.0164 13.58 49.2364 13.58H52.0164V12.94C52.0164 11.58 51.2564 10.84 49.9164 10.84C48.8164 10.84 48.0164 11.32 47.1964 12.3L45.9764 11.06C46.9564 9.64 48.4164 8.96 50.1164 8.96C52.5364 8.96 54.1364 10.42 54.1364 13.06ZM52.0164 15.28V15.1H49.4964C48.3764 15.1 47.7564 15.5 47.7564 16.3C47.7564 17.12 48.4564 17.6 49.4764 17.6C50.8964 17.6 52.0164 16.62 52.0164 15.28ZM62.6791 9.18V11.04H62.0391C60.3791 11.04 59.1591 12.02 59.1591 13.76V19H57.0591V9.18H59.0191V10.46C59.7191 9.58 60.7591 9.08 61.8791 9.08C62.1791 9.08 62.4391 9.12 62.6791 9.18ZM73.2038 14.78H65.8838C66.1438 16.38 67.4038 17.36 69.0838 17.36C70.1038 17.36 71.0638 16.98 71.9438 16.2L72.9437 17.64C71.8238 18.7 70.5238 19.22 69.0238 19.22C66.0238 19.22 63.7438 17 63.7438 14.1C63.6838 11.28 66.0438 8.9 68.8238 8.96C71.4238 8.96 73.3638 10.9 73.3638 13.46C73.3638 13.88 73.3038 14.32 73.2038 14.78ZM65.9238 13.14H71.2638C71.2438 11.64 70.1238 10.74 68.7438 10.74C67.3638 10.74 66.2438 11.68 65.9238 13.14Z" fill="white"/>
<defs>
<filter id="filter0_d_1061_2355" x="0.448933" y="20.2391" width="526.76" height="113.142" filterUnits="userSpaceOnUse" color-interpolation-filters="sRGB">
<feFlood flood-opacity="0" result="BackgroundImageFix"/>
<feColorMatrix in="SourceAlpha" type="matrix" values="0 0 0 0 0 0 0 0 0 0 0 0 0 0 0 0 0 0 127 0" result="hardAlpha"/>
<feOffset dy="2.91032"/>
<feGaussianBlur stdDeviation="5.33559"/>
<feComposite in2="hardAlpha" operator="out"/>
<feColorMatrix type="matrix" values="0 0 0 0 0 0 0 0 0 0 0 0 0 0 0 0 0 0 0.25 0"/>
<feBlend mode="normal" in2="BackgroundImageFix" result="effect1_dropShadow_1061_2355"/>
<feBlend mode="normal" in="SourceGraphic" in2="effect1_dropShadow_1061_2355" result="shape"/>
</filter>
<linearGradient id="paint0_linear_1061_2355" x1="2" y1="81.5" x2="521" y2="81.5" gradientUnits="userSpaceOnUse">
<stop offset="0.550962" stop-color="#FF56D6"/>
<stop offset="1" stop-color="#FF9167"/>
</linearGradient>
</defs>
</svg>
